<svg width="115" height="99" viewBox="0 0 115 99" fill="none" xmlns="http://www.w3.org/2000/svg">
<g clip-path="url(#clip0_795_9262)">
<path d="M113.766 63.7957C113.582 65.4812 112.216 66.7981 110.524 66.9166C110.384 66.9265 110.245 66.9363 110.106 66.9454C109.074 67.0153 108.271 67.872 108.271 68.9063V72.8156C108.271 74.1307 106.766 74.877 105.719 74.0805C103.81 72.6264 101.27 70.4636 99.7112 68.2209C99.3424 67.6898 98.7331 67.3803 98.0862 67.3839C93.2874 67.4082 88.4886 67.2539 83.6899 66.9166C82.352 66.8233 81.2161 65.9828 80.71 64.8005C80.5754 64.4901 80.4856 64.1546 80.4471 63.8039C79.7364 57.3138 79.7364 50.8227 80.4471 44.3316C80.6319 42.6478 81.9985 41.3371 83.6881 41.2187C90.8368 40.7172 97.9847 40.6169 105.133 40.9173C106.929 40.9918 108.726 41.0922 110.523 41.2187C112.213 41.3371 113.581 42.6478 113.766 44.3316C114.476 50.8198 114.476 57.3073 113.766 63.7957Z" fill="#2ECCEF"/>
<path d="M82.2782 44.1531C81.5503 50.7984 81.5503 57.4445 82.2782 64.0885C82.3176 64.4482 82.4096 64.7912 82.5473 65.1095C82.8994 65.9325 83.5497 66.5937 84.3606 66.9624C84.1372 66.9479 83.9137 66.9326 83.6902 66.9168C82.3522 66.8234 81.2161 65.983 80.7104 64.8003C80.5755 64.4898 80.4855 64.1543 80.4474 63.8036C79.7363 57.3139 79.7363 50.8227 80.4474 44.3315C80.6322 42.648 81.9985 41.3373 83.688 41.2191C84.018 41.1963 84.348 41.1735 84.6787 41.1527C83.392 41.5953 82.4324 42.7476 82.2782 44.1531Z" fill="#66B49D"/>
<path d="M93.168 61.3725C93.17 62.4302 94.559 63.2866 95.617 63.2866H103.806C104.658 63.2866 105.348 62.5965 105.348 61.7448C105.348 61.3192 105.176 60.9334 104.897 60.6545C104.618 60.3757 104.232 60.2031 103.806 60.2031H104.36C105.211 60.2031 105.902 59.5135 105.902 58.6613C105.902 58.2352 105.73 57.8503 105.45 57.571C105.171 57.292 104.786 57.12 104.36 57.12H104.914C105.755 57.12 106.438 56.4463 106.455 55.6091C106.472 54.744 105.744 54.0365 104.879 54.0365H104.359C105.211 54.0365 105.902 53.3464 105.902 52.4942C105.902 52.0681 105.73 51.6833 105.45 51.4039C105.171 51.125 104.786 50.9529 104.359 50.9529H100.022C100.016 50.9432 100.014 50.9403 100.008 50.9305L101.699 47.3284C102.179 46.3072 101.739 45.0905 100.718 44.6108C100.437 44.479 100.142 44.4169 99.8511 44.4169C99.0832 44.4169 98.3477 44.8515 97.9996 45.5922L97.2764 47.1325C96.8492 48.0419 96.165 48.8106 95.2985 49.3187C94.7265 49.6538 94.2502 50.1649 93.9592 50.8192C93.7607 51.2657 93.6718 51.7361 93.6802 52.1979L93.168 61.3725Z" fill="#FFDDCE"/>
<path d="M101.351 45.0725C101.281 45.065 101.212 45.0615 101.142 45.0615C100.374 45.0615 99.6387 45.4961 99.2906 46.2369L98.5675 47.7772C98.1403 48.6866 97.456 49.4553 96.5896 49.9633C96.0176 50.2984 93.9601 50.819 93.8841 54.7155C93.8782 55.0198 93.7682 55.3007 93.6877 55.5811L93.6812 52.1977C93.6727 51.7358 93.7618 51.2655 93.9602 50.8191C94.2511 50.1648 94.7276 49.6537 95.2996 49.3185C96.1659 48.8104 96.8503 48.0418 97.2775 47.1324L98.0006 45.5921C98.3487 44.8512 99.0843 44.4167 99.8522 44.4167C100.143 44.4167 100.439 44.4789 100.719 44.6107C100.965 44.726 101.177 44.8846 101.351 45.0725Z" fill="#FFCBBE"/>
<path d="M105.348 61.745C105.348 62.5969 104.658 63.2872 103.807 63.2872H95.4038C94.5145 63.2872 93.69 62.8575 93.1797 62.1512H103.807C104.458 62.1512 105.014 61.7479 105.24 61.177C105.241 61.1775 105.241 61.1785 105.242 61.1789C105.242 61.1789 105.241 61.1795 105.242 61.1795C105.311 61.3546 105.348 61.5456 105.348 61.745Z" fill="#FFCBBE"/>
<path d="M105.794 58.0934C105.863 58.2692 105.902 58.4608 105.902 58.6613C105.902 59.5136 105.212 60.2038 104.36 60.2038H103.769C103.455 60.2038 103.201 59.9495 103.201 59.6358C103.201 59.3221 103.455 59.0678 103.769 59.0678H104.36C105.011 59.0679 105.568 58.6643 105.794 58.0934Z" fill="#FFCBBE"/>
<path d="M106.347 55.0099C106.417 55.1857 106.456 55.3773 106.456 55.5778C106.456 56.4301 105.765 57.1203 104.914 57.1203H104.323C104.009 57.1203 103.755 56.866 103.755 56.5523C103.755 56.2386 104.009 55.9843 104.323 55.9843H104.914C105.565 55.9843 106.121 55.5807 106.347 55.0099Z" fill="#FFCBBE"/>
<path d="M105.795 51.9264C105.864 52.1022 105.903 52.2938 105.903 52.4943C105.903 53.3466 105.213 54.0368 104.361 54.0368H103.77C103.456 54.0368 103.202 53.7825 103.202 53.4688C103.202 53.1551 103.456 52.9008 103.77 52.9008H104.361C105.012 52.9009 105.569 52.4972 105.795 51.9264Z" fill="#FFCBBE"/>
<path d="M88.8838 52.1977V61.8122C88.8838 62.479 89.4245 63.0196 90.0915 63.0196H92.4728C93.1397 63.0196 93.6805 62.479 93.6805 61.8122V52.1977C93.6805 51.531 93.1397 50.9904 92.4728 50.9904H90.0915C89.4245 50.9904 88.8838 51.5309 88.8838 52.1977Z" fill="#F1F4F6"/>
<path d="M88.8838 58.7838V61.8125C88.8838 62.4793 89.4248 63.0196 90.0918 63.0196H92.473C93.14 63.0196 93.6804 62.4793 93.6804 61.8125V58.7838C93.6804 59.4506 93.14 59.9916 92.473 59.9916H90.0918C89.4248 59.9915 88.8838 59.4506 88.8838 58.7838Z" fill="#D0E2E7"/>
<path d="M62.4053 45.2692C62.583 46.89 63.8963 48.1563 65.5236 48.2702C65.6582 48.2797 65.792 48.2891 65.9257 48.2978C66.9179 48.365 67.6893 49.1889 67.6893 50.1834V53.9425C67.6893 55.2071 69.1371 55.9247 70.1431 55.1588C71.9792 53.7606 74.4218 51.6809 75.9206 49.5244C76.2753 49.0138 76.8611 48.7161 77.4832 48.7196C82.0976 48.7429 86.7119 48.5946 91.3263 48.2702C92.6127 48.1804 93.7051 47.3723 94.1918 46.2353C94.3211 45.9368 94.4074 45.6143 94.4446 45.277C95.1279 39.0362 95.1279 32.7946 94.4446 26.5529C94.2668 24.9339 92.9527 23.6736 91.328 23.5597C84.4538 23.0776 77.5806 22.981 70.7073 23.2699C68.98 23.3415 67.2517 23.4381 65.5243 23.5597C63.8988 23.6736 62.5839 24.9339 62.4062 26.553C61.7228 32.792 61.7228 39.0302 62.4053 45.2692Z" fill="#FFD954"/>
<path d="M64.1658 26.3812C63.466 32.7713 63.466 39.1619 64.1658 45.5506C64.2037 45.8965 64.2922 46.2263 64.4245 46.5323C64.7631 47.3237 65.3885 47.9595 66.1682 48.314C65.9533 48.3001 65.7384 48.2854 65.5235 48.2701C64.2369 48.1804 63.1446 47.3723 62.6583 46.235C62.5286 45.9364 62.4421 45.6138 62.4055 45.2766C61.7216 39.0363 61.7216 32.7945 62.4055 26.5527C62.583 24.9339 63.897 23.6736 65.5216 23.5598C65.8389 23.5379 66.1563 23.5159 66.4742 23.496C65.2368 23.9218 64.3141 25.0298 64.1658 26.3812Z" fill="#EDC932"/>
<path d="M83.9699 35.4359C84.9404 35.4359 85.7299 34.1244 85.7299 32.5122C85.7299 30.9 84.9404 29.5885 83.9699 29.5885C82.9994 29.5885 82.21 30.9 82.21 32.5122C82.21 34.1244 82.9994 35.4359 83.9699 35.4359Z" fill="#FF5A96"/>
<path d="M72.879 35.4359C73.8496 35.4359 74.6391 34.1244 74.6391 32.5122C74.6391 30.9 73.8496 29.5885 72.879 29.5885C71.9086 29.5885 71.1191 30.9 71.1191 32.5122C71.1191 34.1244 71.9086 35.4359 72.879 35.4359Z" fill="#FF5A96"/>
<path d="M84.4867 37.5851C84.0838 37.4158 83.6204 37.6042 83.4507 38.0065C82.5961 40.033 80.6233 41.3424 78.4248 41.3424C76.2262 41.3424 74.2534 40.033 73.3988 38.0065C73.2292 37.6042 72.7651 37.4158 72.3627 37.5851C71.9603 37.7548 71.7715 38.2184 71.9412 38.6208C73.0436 41.2346 75.5885 42.9237 78.4247 42.9237C81.2607 42.9237 83.8056 41.2346 84.908 38.6208C85.0779 38.2184 84.8892 37.7548 84.4867 37.5851Z" fill="#FF5A96"/>
</g>
<path d="M14.166 58.1134C14.166 56.3911 15.5626 54.9949 17.2854 54.9949H32.8825C34.6053 54.9949 36.002 56.3911 36.002 58.1134H14.166Z" fill="#2ECCEF"/>
<path d="M9.48633 62.7913C9.48633 61.069 10.8829 59.6727 12.6057 59.6727H37.5611C39.2839 59.6727 40.6805 61.069 40.6805 62.7913V64.3506H9.48633V62.7913Z" fill="#FF5A96"/>
<path fill-rule="evenodd" clip-rule="evenodd" d="M7.92704 65.9098C6.20423 65.9098 4.80762 67.306 4.80762 69.0283V90.8582C4.80762 92.5806 6.20423 93.9768 7.92704 93.9768H42.2406C43.9634 93.9768 45.3601 92.5806 45.3601 90.8582V69.0283C45.3601 67.306 43.9635 65.9098 42.2406 65.9098H7.92704Z" fill="#FFD954"/>
<path d="M16.4985 80.2374C15.5366 79.2956 14.9453 78.0168 14.9453 76.6082C14.9453 73.7137 17.4418 71.3673 20.5213 71.3673C22.4071 71.3673 24.0743 73.3193 25.0834 74.6661C26.0925 73.3193 27.7597 71.3673 29.6456 71.3673C32.7251 71.3673 35.2215 73.7137 35.2215 76.6082C35.2215 78.086 34.5708 79.4208 33.5241 80.3736L25.0834 88.5194L16.4985 80.2374Z" fill="#FF5A96"/>
<path d="M34.0821 17.4422C34.3439 17.5244 34.538 17.5667 34.727 17.6331C36.5749 18.1367 38.3985 18.6349 40.2464 19.1385C40.848 19.2948 40.9993 19.7571 40.6571 20.2635C40.5465 20.4162 40.4413 20.5449 40.3119 20.6683C38.0179 23.0733 35.4539 25.0911 32.5956 26.7166C30.1824 28.0599 27.8771 29.6039 25.6149 31.1823C24.3477 32.0681 23.0616 32.9246 21.7512 33.7758C20.5298 34.5705 19.3597 35.4777 18.257 36.4246C17.1004 37.3849 15.8628 38.2521 14.6253 39.1191C14.2936 39.35 13.881 39.4875 13.4792 39.5768C13.1367 39.6285 12.7078 39.6108 12.3786 39.4886C11.3049 39.0526 10.9726 38.1467 11.5547 37.1369C11.9292 36.4859 12.4333 35.9389 12.8996 35.3333C13.0748 35.1188 13.2743 34.9097 13.4252 34.69C15.8939 31.1613 18.3438 27.603 20.8125 24.0742C22.2463 21.9869 23.6693 19.9479 25.1355 17.9435C27.7553 14.4223 31.1066 11.8434 35.1569 10.124C35.8014 9.86028 36.4405 9.62063 37.1094 9.36216C36.6075 9.10129 36.3784 9.10188 36.249 9.45259C35.9818 9.39444 35.7148 9.33626 35.4478 9.27808C35.2051 9.22519 34.9865 9.1776 34.8649 8.92381C34.8136 8.81162 34.6303 8.72111 34.5034 8.71877C33.9827 8.65588 33.4325 8.61179 32.9119 8.54891C32.7366 8.53599 32.5612 8.52305 32.3913 8.48602C32.1972 8.44372 31.8734 8.52479 31.8652 8.21988C31.8434 7.86152 32.1805 7.83393 32.4341 7.83863C33.1515 7.8181 33.869 7.79759 34.5758 7.82521C36.5448 7.9005 38.5785 7.9141 40.5854 8.27551C41.1493 8.37304 41.7023 8.51876 42.2555 8.66445C42.9245 8.8607 43.1162 9.25609 42.9655 9.93051C42.8685 10.3641 42.6666 10.6989 42.3483 10.9832C41.7769 11.4902 41.2295 12.0025 40.6446 12.4559C38.6522 13.9668 36.6407 15.4484 34.6483 16.9593C34.4648 17.0962 34.3058 17.2383 34.0821 17.4422Z" fill="#2ECCEF"/>
<path d="M27.545 19.4446C29.4075 19.7439 31.27 20.0432 33.1068 20.337C33.7257 20.4453 34.3389 20.5788 34.9578 20.6871C35.3412 20.7706 35.6819 20.9245 35.8069 21.324C35.9265 21.7487 35.7649 22.1123 35.4356 22.3862C35.1632 22.6459 34.8454 22.8691 34.5334 23.0669C27.3993 27.893 20.3505 32.8175 13.5659 38.1184C13.1488 38.4264 12.7316 38.7342 12.2889 39.0366C11.9967 39.2653 11.6703 39.4069 11.2954 39.1658C10.9461 38.9301 10.9175 38.5784 10.9968 38.2235C11.2206 37.3417 11.4699 36.4655 11.7448 35.595C12.3088 33.9103 12.904 32.2055 13.468 30.5208C14.1028 28.6387 14.6809 26.7708 15.3412 24.8943C16.0186 22.9418 16.767 21.0313 17.4898 19.1152C17.8158 18.2558 18.1162 17.3908 18.4535 16.4807C18.1725 16.4195 17.9169 16.3638 17.687 16.3137C16.9148 16.1721 16.1113 16.0503 15.3447 15.8833C14.3993 15.6774 14.2003 15.1289 14.7506 14.3449C15.0995 13.8627 15.4739 13.386 15.8739 12.9149C16.4101 12.3139 16.9974 11.7241 17.5535 11.154C19.1962 9.43832 20.8645 7.72818 22.4816 6.0069C23.0689 5.41709 23.6536 5.19885 24.4258 5.34048C25.6637 5.55694 26.9072 5.74803 28.145 5.96449C30.9585 6.44443 33.7977 6.92989 36.6054 7.43519C37.3522 7.57123 38.0932 7.73265 38.8086 7.8885C39.064 7.94415 39.2941 7.99423 39.5383 8.10059C40.3787 8.41658 40.5919 9.02131 40.0531 9.75455C39.8147 10.1014 39.5111 10.3809 39.202 10.6857C37.145 12.577 34.8974 14.2407 32.6302 15.8735C31.1346 16.9302 29.5739 17.9193 28.033 18.9395C27.8457 19.0582 27.6584 19.1769 27.491 19.3265C27.5109 19.3574 27.5308 19.3883 27.545 19.4446Z" fill="#FFD954"/>
<path d="M18.5046 16.4918C18.198 16.425 17.968 16.3749 17.7125 16.3193C16.9459 16.1523 16.1425 16.0304 15.3759 15.8635C14.4816 15.6687 14.257 15.1147 14.7761 14.3505C15.0937 13.888 15.4625 13.4367 15.8569 12.9909C16.4243 12.3701 17.0116 11.7803 17.5733 11.1849C19.2473 9.44943 20.9155 7.73929 22.5383 5.99266C23.0689 5.41706 23.6791 5.20438 24.4513 5.34601C25.6636 5.55691 26.8816 5.74245 28.0938 5.95335C30.933 6.43881 33.7664 6.94965 36.6309 7.44071C37.3521 7.57121 38.0674 7.72706 38.783 7.88289C38.9874 7.92742 39.1918 7.97195 39.3905 8.04184C40.4412 8.37699 40.6827 9.09425 39.9367 9.91529C39.3268 10.6065 38.6203 11.2501 37.8996 11.8375C35.0278 14.1362 32.1165 16.3731 29.0007 18.3261C28.5012 18.6427 28.0273 18.9648 27.4654 19.3209C27.7636 19.5454 28.0673 19.5052 28.3229 19.5608C30.4153 19.9103 32.5331 20.2653 34.6255 20.6147C34.8044 20.6536 34.9889 20.6673 35.1878 20.7371C35.8607 20.9635 36.0938 21.5991 35.6456 22.166C35.3931 22.4566 35.0696 22.7052 34.7518 22.9284C32.2517 24.6434 29.7517 26.3584 27.2517 28.0736C22.8448 31.1277 18.5174 34.3056 14.2696 37.607C13.685 38.0646 13.0749 38.5165 12.4705 38.9431C12.34 39.0476 12.1839 39.1464 12.0392 39.1948C11.5368 39.4043 11.0796 39.172 11.0396 38.6314C11.0309 38.3105 11.079 37.9754 11.1781 37.6515C11.8271 35.5864 12.5015 33.5268 13.1704 31.4927C13.9157 29.2359 14.6298 26.999 15.4263 24.7533C16.0923 22.8515 16.835 20.9663 17.5465 19.101C17.8725 18.2416 18.173 17.3766 18.5046 16.4918ZM12.6881 37.1298C12.7335 37.1661 12.779 37.2026 12.8301 37.2137C19.5437 31.8708 26.6323 27.0081 33.6838 21.9514C33.1472 21.8345 32.7441 21.7201 32.3296 21.6564C30.3337 21.3546 28.3578 21.0837 26.3619 20.7819C26.1519 20.7627 25.9474 20.7182 25.7487 20.6483C24.9792 20.3744 24.8085 19.6992 25.3504 19.0729C25.5972 18.8076 25.915 18.5844 26.2328 18.3613C28.066 17.1124 29.9588 15.9562 31.7521 14.6455C33.9315 13.0467 36.0001 11.344 38.114 9.67779C38.2759 9.5535 38.4233 9.37297 38.69 9.13866C38.0512 8.99952 37.5714 8.86841 37.0801 8.78802C32.8755 8.05825 28.6709 7.32846 24.4719 6.57334C24.1085 6.52077 23.9212 6.63946 23.7112 6.85958C22.0685 8.57528 20.4258 10.291 18.7831 12.0067C18.1533 12.667 17.5234 13.3273 16.8936 13.9876C16.7518 14.1428 16.6042 14.3233 16.4142 14.5744C16.7208 14.6411 16.9508 14.6913 17.1552 14.7358C17.9019 14.8718 18.6542 14.9825 19.364 15.1637C20.0227 15.3338 20.2245 15.7499 20.0006 16.3923C19.6463 17.3785 19.2608 18.3844 18.8809 19.365C18.0929 21.453 17.285 23.51 16.5481 25.6091C15.4229 28.8465 14.3544 32.0695 13.2662 35.2619C13.0735 35.8844 12.8808 36.5071 12.6881 37.1298Z" fill="#FF5A96"/>
<defs>
<clipPath id="clip0_795_9262">
<rect width="52.4062" height="52.3918" fill="white" transform="translate(61.8926 22.5619)"/>
</clipPath>
</defs>
</svg>
