<svg width="26" height="26" viewBox="0 0 26 26" fill="none" xmlns="http://www.w3.org/2000/svg">
<path d="M18.1458 3.85669V2.16669C18.1458 1.72252 17.7774 1.35419 17.3333 1.35419C16.8891 1.35419 16.5208 1.72252 16.5208 2.16669V3.79169H9.47909V2.16669C9.47909 1.72252 9.11076 1.35419 8.66659 1.35419C8.22242 1.35419 7.85409 1.72252 7.85409 2.16669V3.85669C4.92909 4.12752 3.50992 5.87169 3.29326 8.46085C3.27159 8.77502 3.53159 9.03502 3.83492 9.03502H22.1649C22.4791 9.03502 22.7391 8.76419 22.7066 8.46085C22.4899 5.87169 21.0708 4.12752 18.1458 3.85669Z" fill="#F0A901"/>
<path d="M20.5833 16.25C18.1892 16.25 16.25 18.1892 16.25 20.5833C16.25 21.3958 16.4775 22.165 16.8783 22.815C17.6258 24.0717 19.0017 24.9167 20.5833 24.9167C22.165 24.9167 23.5408 24.0717 24.2883 22.815C24.6892 22.165 24.9167 21.3958 24.9167 20.5833C24.9167 18.1892 22.9775 16.25 20.5833 16.25ZM22.8258 20.1175L20.5183 22.2517C20.3667 22.3925 20.1608 22.4683 19.9658 22.4683C19.76 22.4683 19.5542 22.3925 19.3917 22.23L18.3192 21.1575C18.005 20.8433 18.005 20.3233 18.3192 20.0092C18.6333 19.695 19.1533 19.695 19.4675 20.0092L19.9875 20.5292L21.7208 18.9258C22.0458 18.6225 22.5658 18.6442 22.8692 18.9692C23.1725 19.2942 23.1508 19.8033 22.8258 20.1175Z" fill="#F0A901"/>
<path d="M21.6667 10.66H4.33333C3.7375 10.66 3.25 11.1475 3.25 11.7433V18.4166C3.25 21.6666 4.875 23.8333 8.66667 23.8333H14.0075C14.755 23.8333 15.275 23.1075 15.0367 22.4033C14.82 21.775 14.6358 21.0816 14.6358 20.5833C14.6358 17.3008 17.3117 14.625 20.5942 14.625C20.9083 14.625 21.2225 14.6466 21.5258 14.7008C22.1758 14.7983 22.7608 14.2891 22.7608 13.6391V11.7541C22.75 11.1475 22.2625 10.66 21.6667 10.66ZM9.9775 19.7275C9.77167 19.9225 9.49 20.0416 9.20833 20.0416C8.92667 20.0416 8.645 19.9225 8.43917 19.7275C8.24417 19.5216 8.125 19.24 8.125 18.9583C8.125 18.6766 8.24417 18.395 8.43917 18.1891C8.5475 18.0916 8.65583 18.0158 8.79667 17.9616C9.1975 17.7883 9.67417 17.8858 9.9775 18.1891C10.1725 18.395 10.2917 18.6766 10.2917 18.9583C10.2917 19.24 10.1725 19.5216 9.9775 19.7275ZM9.9775 15.9358C9.92333 15.9791 9.86917 16.0225 9.815 16.0658C9.75 16.1091 9.685 16.1416 9.62 16.1633C9.555 16.1958 9.49 16.2175 9.425 16.2283C9.34917 16.2391 9.27333 16.25 9.20833 16.25C8.92667 16.25 8.645 16.1308 8.43917 15.9358C8.24417 15.73 8.125 15.4483 8.125 15.1666C8.125 14.885 8.24417 14.6033 8.43917 14.3975C8.68833 14.1483 9.0675 14.0291 9.425 14.105C9.49 14.1158 9.555 14.1375 9.62 14.17C9.685 14.1916 9.75 14.2241 9.815 14.2675C9.86917 14.3108 9.92333 14.3541 9.9775 14.3975C10.1725 14.6033 10.2917 14.885 10.2917 15.1666C10.2917 15.4483 10.1725 15.73 9.9775 15.9358ZM13.7692 15.9358C13.5633 16.1308 13.2817 16.25 13 16.25C12.7183 16.25 12.4367 16.1308 12.2308 15.9358C12.0358 15.73 11.9167 15.4483 11.9167 15.1666C11.9167 14.885 12.0358 14.6033 12.2308 14.3975C12.6425 13.9966 13.3683 13.9966 13.7692 14.3975C13.9642 14.6033 14.0833 14.885 14.0833 15.1666C14.0833 15.4483 13.9642 15.73 13.7692 15.9358Z" fill="#F0A901"/>
</svg>
