<svg width="22" height="20" viewBox="0 0 22 20" fill="none" xmlns="http://www.w3.org/2000/svg">
<path d="M1.83301 10.8066V9.19332C1.83301 8.23998 2.61217 7.45165 3.57467 7.45165C5.23384 7.45165 5.91217 6.27832 5.07801 4.83915C4.60134 4.01415 4.88551 2.94165 5.71967 2.46498L7.30551 1.55748C8.02967 1.12665 8.96467 1.38332 9.39551 2.10748L9.49634 2.28165C10.3213 3.72082 11.678 3.72082 12.5122 2.28165L12.613 2.10748C13.0438 1.38332 13.9788 1.12665 14.703 1.55748L16.2888 2.46498C17.123 2.94165 17.4072 4.01415 16.9305 4.83915C16.0963 6.27832 16.7747 7.45165 18.4338 7.45165C19.3872 7.45165 20.1755 8.23082 20.1755 9.19332V10.8066C20.1755 11.76 19.3963 12.5483 18.4338 12.5483C16.7747 12.5483 16.0963 13.7216 16.9305 15.1608C17.4072 15.995 17.123 17.0583 16.2888 17.535L14.703 18.4425C13.9788 18.8733 13.0438 18.6166 12.613 17.8925L12.5122 17.7183C11.6872 16.2791 10.3305 16.2791 9.49634 17.7183L9.39551 17.8925C8.96467 18.6166 8.02967 18.8733 7.30551 18.4425L5.71967 17.535C4.88551 17.0583 4.60134 15.9858 5.07801 15.1608C5.91217 13.7216 5.23384 12.5483 3.57467 12.5483C2.61217 12.5483 1.83301 11.76 1.83301 10.8066Z" stroke="white" stroke-width="2" stroke-miterlimit="10" stroke-linecap="round" stroke-linejoin="round"/>
</svg>
